<svg xmlns="http://www.w3.org/2000/svg" viewBox="-4 -42 84 50"><path d="M4.22-2.05L4.22-2.05L0.96-4.86Q0.70-5.06 0.67-5.25Q0.64-5.44 0.58-5.50L0.58-5.50L0.64-5.95Q0.51-6.02 0.54-6.11Q0.58-6.21 0.70-6.27L0.70-6.27Q0.90-6.34 2.50-8.13L2.50-8.13L4.61-10.30L5.95-11.84Q6.53-12.48 7.52-13.63Q8.51-14.78 9.38-15.81Q10.24-16.83 10.37-16.90L10.37-16.90Q9.41-18.43 8.19-19.74Q6.98-21.06 5.92-22.14Q4.86-23.23 4.42-24L4.42-24Q4.22-24.06 3.62-24.70Q3.01-25.34 2.46-25.89Q1.92-26.43 1.98-26.30L1.98-26.30L0.51-28.16Q-0.06-28.93 0.10-29.34Q0.26-29.76 0.32-30.59L0.32-30.59Q0.58-30.59 0.80-30.88Q1.02-31.17 1.15-31.23L1.15-31.23Q1.41-31.42 1.60-31.42L1.60-31.42Q1.79-31.68 2.40-32.35Q3.01-33.02 3.68-33.63Q4.35-34.24 4.61-34.43L4.61-34.43Q5.89-35.26 6.50-35.68Q7.10-36.10 7.65-36.54Q8.19-36.99 9.28-37.76L9.28-37.76L11.20-37.82Q11.33-37.82 11.81-37.57Q12.29-37.31 12.42-37.18L12.42-37.18Q12.99-36.42 14.21-35.23Q15.42-34.05 16.83-32.67Q18.24-31.30 19.39-29.89L19.39-29.89Q19.52-29.44 19.58-29.50L19.58-29.50Q19.71-29.38 19.71-29.38L19.71-29.38Q19.71-29.12 20-28.96Q20.29-28.80 20.35-28.67L20.35-28.67L20.54-28.54L20.67-28.48Q20.74-28.54 20.93-28.13Q21.12-27.71 21.38-27.42Q21.63-27.14 21.76-27.46L21.76-27.46L24.83-30.91Q25.34-31.49 26.37-32.54Q27.39-33.60 28.58-34.75Q29.76-35.90 30.69-36.77Q31.62-37.63 31.87-37.82L31.87-37.82Q32.13-38.27 32.58-38.27L32.58-38.27Q33.34-38.59 33.92-38.18Q34.50-37.76 34.98-37.25Q35.46-36.74 35.84-36.61L35.84-36.61Q36.86-36.10 38.21-34.98Q39.55-33.86 40.64-32.74Q41.73-31.62 41.86-30.98L41.86-30.98Q41.79-30.14 41.38-29.79Q40.96-29.44 40.38-28.67L40.38-28.67Q40.19-28.54 39.97-28.19Q39.74-27.84 39.42-27.58L39.42-27.58Q38.98-27.20 38.50-26.78Q38.02-26.37 38.08-26.43L38.08-26.43Q37.57-25.79 37.31-25.50Q37.06-25.22 36.74-24.90L36.74-24.90Q35.78-23.87 34.66-22.62Q33.54-21.38 32.64-20.42Q31.74-19.46 31.49-19.20L31.49-19.20L35.20-14.98Q35.71-14.53 36.70-13.44Q37.70-12.35 38.82-11.17Q39.94-9.98 40.83-9.15L40.83-9.15Q42.11-7.94 42.40-7.17Q42.69-6.40 42.56-5.95Q42.43-5.50 42.30-5.25L42.30-5.25L41.73-4.35L41.41-4.22Q40.77-4.03 39.62-3.33Q38.46-2.62 37.34-1.86Q36.22-1.09 35.58-0.51Q34.94 0.06 35.26 0.06L35.26 0.06Q34.24 0.90 33.02 1.50Q31.81 2.11 30.98 2.18L30.98 2.18L28.22-0.19Q28.35-0.51 28.32-0.58Q28.29-0.64 28.22-0.64L28.22-0.64L27.97-0.64Q27.97-0.64 27.58-0.90L27.58-0.90Q25.41-3.58 24.10-4.77Q22.78-5.95 21.89-7.10L21.89-7.10Q21.82-7.23 21.66-7.39Q21.50-7.55 21.38-7.81L21.38-7.81Q21.25-8.19 21.06-8.19L21.06-8.19L19.20-6.27L12.93 0.45L11.84 1.47L11.01 2.56L10.11 2.88L9.34 2.30L9.34 2.05L9.22 2.05Q9.09 2.05 9.02 2.05L9.02 2.05Q9.02 2.11 8.96 2.11L8.96 2.11Q9.02 2.05 9.02 2.05L9.02 2.05Q9.15 1.92 8.22 1.15Q7.30 0.38 6.08-0.54Q4.86-1.47 4.22-2.05ZM56.90 0.96L54.53 0.96Q51.33 0.96 49.54 0.77Q47.74 0.58 46.40 0.13L46.40 0.13Q46.02 0.13 45.89-0.19L45.89-0.19Q45.63-0.77 45.63-1.47L45.63-1.47L44.93-12.29Q44.80-14.08 44.74-15.62Q44.67-17.15 44.64-18.98Q44.61-20.80 44.61-23.30L44.61-23.30L44.61-25.15L44.67-27.84L44.80-31.04L44.93-33.41Q44.93-34.50 44.93-34.78Q44.93-35.07 44.99-35.26L44.99-35.26Q44.99-35.46 45.25-35.46L45.25-35.46Q45.82-35.46 46.40-35.71L46.40-35.71Q46.53-35.71 46.66-35.71Q46.78-35.71 47.04-35.78L47.04-35.78Q47.17-35.78 47.39-35.78Q47.62-35.78 47.74-35.71L47.74-35.71L56.77-35.71Q57.73-35.71 58.05-35.71Q58.37-35.71 58.62-35.65L58.62-35.65L60.61-35.58Q61.38-35.52 61.73-35.46Q62.08-35.39 62.27-35.01L62.27-35.01L62.78-33.22L62.78-28.99Q64.32-31.55 68.35-34.37L68.35-34.37Q70.02-35.58 71.62-35.84Q73.22-36.10 74.30-36.35L74.30-36.35Q75.07-36.54 75.58-36.13Q76.10-35.71 76.10-34.88L76.10-34.88Q76.10-26.88 75.71-23.71Q75.33-20.54 74.30-20.61L74.30-20.61Q73.15-20.67 71.84-20.96Q70.53-21.25 68.80-21.25L68.80-21.25Q66.18-21.25 64.42-19.87Q62.66-18.50 62.66-16.45L62.66-16.45L62.66-0.45Q62.66-0.13 62.53-0.06L62.53-0.06Q62.46 0 62.46 0.26L62.46 0.26Q62.40 0.51 62.14 0.51L62.14 0.51Q62.21 0.51 61.95 0.64L61.95 0.64L61.63 0.77Q59.14 0.77 56.90 0.96L56.90 0.96Z" fill="#e02e81"/></svg>
